<?xml version="1.0" encoding="iso-8859-1"?>
<!-- Uploaded to: SVG Repo, www.svgrepo.com, Generator: SVG Repo Mixer Tools -->
<svg xmlns="http://www.w3.org/2000/svg" xmlns:xlink="http://www.w3.org/1999/xlink" version="1.1" id="Layer_1"  viewBox="0 0 422.857 422.857" xml:space="preserve" width="512" height="512">
<g>
	<g>
		<path style="fill:#F5CFB2;" d="M49.135,208.484c-2.919,0-5.693-1.714-6.906-4.57l-30.566-71.967    c-1.619-3.813,0.159-8.216,3.972-9.835c3.814-1.618,8.216,0.159,9.835,3.972l30.566,71.967c1.619,3.813-0.159,8.216-3.972,9.835    C51.106,208.292,50.112,208.484,49.135,208.484z"/>
		<path style="opacity:0.2;fill:#222222;" d="M25.469,126.084c-1.619-3.813-6.021-5.59-9.835-3.972    c-3.813,1.619-5.591,6.022-3.972,9.835l8.857,20.854c5.274-0.428,10.06-2.567,13.806-5.864L25.469,126.084z"/>
		<circle style="fill:#F5CFB2;" cx="18.566" cy="129.016" r="18.566"/>
		<path style="opacity:0.1;fill:#222222;" d="M18.565,110.449C8.311,110.449,0,118.762,0,129.016s8.311,18.566,18.565,18.566    V110.449z"/>
	</g>
	<g>
		<path style="fill:#F5CFB2;" d="M87.274,198.598c-3.476,0-6.594-2.43-7.334-5.967l-16.282-77.839    c-0.849-4.054,1.751-8.028,5.806-8.876c4.05-0.848,8.028,1.751,8.877,5.805l16.282,77.84c0.848,4.054-1.751,8.028-5.806,8.876    C88.3,198.545,87.783,198.598,87.274,198.598z"/>
		<path style="opacity:0.2;fill:#222222;" d="M78.341,111.721c-0.849-4.054-4.827-6.652-8.877-5.805    c-4.055,0.848-6.654,4.822-5.806,8.876l4.64,22.18c0.887,0.1,1.787,0.156,2.701,0.156c4.368,0,8.459-1.18,11.981-3.229    L78.341,111.721z"/>
		<circle style="fill:#F5CFB2;" cx="70.999" cy="113.257" r="18.566"/>
		<path style="opacity:0.1;fill:#222222;" d="M70.999,94.69c-10.254,0-18.565,8.313-18.565,18.566s8.312,18.566,18.565,18.566V94.69    z"/>
	</g>
	<path style="fill:#F5CFB2;" d="M369.653,367.927H156.097c-70.554,0-127.954-57.4-127.954-127.954v-21.028   c0-29.383,23.821-53.203,53.204-53.203c29.384,0,53.204,23.82,53.204,53.203v21.028c0,11.88,9.666,21.545,21.546,21.545h213.557   c29.383,0,53.204,23.821,53.204,53.205C422.857,344.106,399.036,367.927,369.653,367.927z"/>
	<path style="opacity:0.1;fill:#222222;" d="M156.097,261.518c-11.88,0-21.546-9.665-21.546-21.545v-21.028   c0-29.383-23.82-53.203-53.204-53.203c-29.383,0-53.204,23.82-53.204,53.203v21.028c0,70.554,57.4,127.954,127.954,127.954H258.53   V261.518H156.097z"/>
	<path style="opacity:0.1;fill:#222222;" d="M369.653,261.518H156.097c-11.88,0-21.546-9.665-21.546-21.545v-21.028   c0-19.964-11.003-37.35-27.269-46.451c-0.856,6.543-1.305,13.214-1.305,19.99c0,84.253,68.301,152.553,152.553,152.553   c57.42,0,107.421-31.729,133.451-78.605C385.19,263.285,377.63,261.518,369.653,261.518z"/>
	<g>
		<circle style="fill:#997668;" cx="258.53" cy="192.483" r="137.552"/>
		<path style="opacity:0.2;fill:#222222;" d="M282.235,301.322c-61.46,0-111.462-50.002-111.462-111.462    c0-48.342,39.328-87.67,87.669-87.67c37.847,0,68.637,30.791,68.637,68.639c0,29.448-23.959,53.406-53.409,53.406    c-22.732,0-41.227-18.494-41.227-41.227c0-17.359,14.122-31.481,31.482-31.481c13.06,0,23.685,10.626,23.685,23.687    c0,9.621-7.827,17.448-17.448,17.448c-6.87,0-12.459-5.589-12.459-12.459c0-4.143-3.357-7.5-7.5-7.5c-4.142,0-7.5,3.357-7.5,7.5    c0,15.141,12.318,27.459,27.459,27.459c17.892,0,32.448-14.557,32.448-32.448c0-21.332-17.354-38.687-38.685-38.687    c-25.63,0-46.482,20.852-46.482,46.481c0,31.003,25.223,56.227,56.227,56.227c37.721,0,68.409-30.686,68.409-68.406    c0-46.118-37.52-83.639-83.637-83.639c-56.611,0-102.669,46.058-102.669,102.67c0,69.732,56.73,126.462,126.462,126.462    c18.131,0,35.546-3.116,51.751-8.823c15.89-10.445,29.484-24.092,39.867-40.027C349.175,288.564,317.169,301.322,282.235,301.322z    "/>
		<path style="opacity:0.2;fill:#222222;" d="M258.53,54.931c-75.968,0-137.553,61.585-137.553,137.553    c0,75.969,61.585,137.553,137.553,137.553V54.931z"/>
	</g>
</g>















</svg>