<svg width="2315" height="582" xmlns="http://www.w3.org/2000/svg" xmlns:xlink="http://www.w3.org/1999/xlink" xml:space="preserve" overflow="hidden"><defs><clipPath id="clip0"><rect x="969" y="736" width="2315" height="582"/></clipPath><linearGradient x1="2329.41" y1="818.009" x2="2406.87" y2="1334.39" gradientUnits="userSpaceOnUse" spreadMethod="reflect" id="fill1"><stop offset="0" stop-color="#131522"/><stop offset="1" stop-color="#131522"/></linearGradient><linearGradient x1="90.5208" y1="211.177" x2="90.5208" y2="-15.4688" gradientUnits="userSpaceOnUse" spreadMethod="reflect" id="fill2"><stop offset="0" stop-color="#FF8267"/><stop offset="1" stop-color="#FF8267"/></linearGradient><linearGradient x1="1218.8" y1="814.531" x2="1218.8" y2="943.323" gradientUnits="userSpaceOnUse" spreadMethod="reflect" id="fill3"><stop offset="0" stop-color="#FF8267"/><stop offset="0.0294118" stop-color="#FF8368"/><stop offset="0.0588235" stop-color="#FF856A"/><stop offset="0.0882353" stop-color="#FF866C"/><stop offset="0.117647" stop-color="#FF886E"/><stop offset="0.147059" stop-color="#FF8970"/><stop offset="0.176471" stop-color="#FF8A71"/><stop offset="0.205882" stop-color="#FF8C73"/><stop offset="0.235294" stop-color="#FF8D74"/><stop offset="0.264706" stop-color="#FF8E76"/><stop offset="0.294118" stop-color="#FF8F77"/><stop offset="0.323529" stop-color="#FF9179"/><stop offset="0.352941" stop-color="#FF927A"/><stop offset="0.382353" stop-color="#FF937B"/><stop offset="0.411765" stop-color="#FF947D"/><stop offset="0.441176" stop-color="#FF957E"/><stop offset="0.470588" stop-color="#FF967F"/><stop offset="0.5" stop-color="#FF9780"/><stop offset="0.529412" stop-color="#FF9781"/><stop offset="0.558824" stop-color="#FF9882"/><stop offset="0.588235" stop-color="#FF9983"/><stop offset="0.617647" stop-color="#FF9A84"/><stop offset="0.647059" stop-color="#FF9A85"/><stop offset="0.676471" stop-color="#FF9B85"/><stop offset="0.705882" stop-color="#FF9C86"/><stop offset="0.735294" stop-color="#FF9C87"/><stop offset="0.764706" stop-color="#FF9D87"/><stop offset="0.794118" stop-color="#FF9D88"/><stop offset="0.823529" stop-color="#FF9D88"/><stop offset="0.852941" stop-color="#FF9E89"/><stop offset="0.882353" stop-color="#FF9E89"/><stop offset="0.911765" stop-color="#FF9E89"/><stop offset="0.941176" stop-color="#FF9E89"/><stop offset="0.970588" stop-color="#FF9E89"/><stop offset="1" stop-color="#FF9F8A"/></linearGradient><linearGradient x1="92.0636" y1="-15.4688" x2="92.0636" y2="192.402" gradientUnits="userSpaceOnUse" spreadMethod="reflect" id="fill4"><stop offset="0" stop-color="#FF9F8A"/><stop offset="0.0142857" stop-color="#FFA08B"/><stop offset="0.0285714" stop-color="#FFA28D"/><stop offset="0.0428571" stop-color="#FFA38F"/><stop offset="0.0571429" stop-color="#FFA591"/><stop offset="0.0714286" stop-color="#FFA693"/><stop offset="0.0857143" stop-color="#FFA894"/><stop offset="0.1" stop-color="#FFA996"/><stop offset="0.114286" stop-color="#FFAB98"/><stop offset="0.128571" stop-color="#FFAC9A"/><stop offset="0.142857" stop-color="#FFAD9B"/><stop offset="0.157143" stop-color="#FFAF9D"/><stop offset="0.171429" stop-color="#FFB09F"/><stop offset="0.185714" stop-color="#FFB1A0"/><stop offset="0.2" stop-color="#FFB3A2"/><stop offset="0.214286" stop-color="#FFB4A3"/><stop offset="0.228571" stop-color="#FFB5A5"/><stop offset="0.242857" stop-color="#FFB6A6"/><stop offset="0.257143" stop-color="#FFB8A8"/><stop offset="0.271429" stop-color="#FFB9A9"/><stop offset="0.285714" stop-color="#FFBAAB"/><stop offset="0.3" stop-color="#FFBBAC"/><stop offset="0.314286" stop-color="#FFBCAE"/><stop offset="0.328571" stop-color="#FFBEAF"/><stop offset="0.342857" stop-color="#FFBFB0"/><stop offset="0.357143" stop-color="#FFC0B1"/><stop offset="0.371429" stop-color="#FFC1B3"/><stop offset="0.385714" stop-color="#FFC2B4"/><stop offset="0.4" stop-color="#FFC3B5"/><stop offset="0.414286" stop-color="#FFC4B6"/><stop offset="0.428571" stop-color="#FFC5B8"/><stop offset="0.442857" stop-color="#FFC6B9"/><stop offset="0.457143" stop-color="#FFC7BA"/><stop offset="0.471429" stop-color="#FFC8BB"/><stop offset="0.485714" stop-color="#FFC9BC"/><stop offset="0.5" stop-color="#FFC9BD"/><stop offset="0.514286" stop-color="#FFCABE"/><stop offset="0.528571" stop-color="#FFCBBF"/><stop offset="0.542857" stop-color="#FFCCC0"/><stop offset="0.557143" stop-color="#FFCDC1"/><stop offset="0.571429" stop-color="#FFCDC2"/><stop offset="0.585714" stop-color="#FFCEC3"/><stop offset="0.6" stop-color="#FFCFC4"/><stop offset="0.614286" stop-color="#FFD0C5"/><stop offset="0.628571" stop-color="#FFD0C5"/><stop offset="0.642857" stop-color="#FFD1C6"/><stop offset="0.657143" stop-color="#FFD2C7"/><stop offset="0.671429" stop-color="#FFD2C8"/><stop offset="0.685714" stop-color="#FFD3C8"/><stop offset="0.7" stop-color="#FFD3C9"/><stop offset="0.714286" stop-color="#FFD4CA"/><stop offset="0.728571" stop-color="#FFD4CA"/><stop offset="0.742857" stop-color="#FFD5CB"/><stop offset="0.757143" stop-color="#FFD5CC"/><stop offset="0.771429" stop-color="#FFD6CC"/><stop offset="0.785714" stop-color="#FFD6CD"/><stop offset="0.8" stop-color="#FFD7CD"/><stop offset="0.814286" stop-color="#FFD7CD"/><stop offset="0.828571" stop-color="#FFD7CE"/><stop offset="0.842857" stop-color="#FFD8CE"/><stop offset="0.857143" stop-color="#FFD8CF"/><stop offset="0.871429" stop-color="#FFD8CF"/><stop offset="0.885714" stop-color="#FFD8CF"/><stop offset="0.9" stop-color="#FFD9D0"/><stop offset="0.914286" stop-color="#FFD9D0"/><stop offset="0.928571" stop-color="#FFD9D0"/><stop offset="0.942857" stop-color="#FFD9D0"/><stop offset="0.957143" stop-color="#FFD9D0"/><stop offset="0.971429" stop-color="#FFD9D0"/><stop offset="0.985714" stop-color="#FFD9D0"/><stop offset="1" stop-color="#FFDAD1"/></linearGradient></defs><g clip-path="url(#clip0)" transform="translate(-969 -736)"><path d="M3000.5 1102C2995.08 1102 2990.68 1103.18 2987.3 1105.52 2983.93 1107.87 2982.24 1111.32 2982.24 1115.86 2982.24 1120.26 2984 1123.82 2987.52 1126.53 2991.04 1129.25 2995.88 1130.6 3002.04 1130.6 3010.4 1130.6 3017.22 1128.22 3022.5 1123.45 3027.78 1118.69 3030.42 1112.27 3030.42 1104.2L3030.42 1102ZM1781.68 1058.88C1772.44 1058.88 1764.89 1061.85 1759.02 1067.79 1753.16 1073.73 1750.22 1082.06 1750.22 1092.76L1750.22 1094.96C1750.22 1105.67 1753.16 1113.99 1759.02 1119.93 1764.89 1125.87 1772.44 1128.84 1781.68 1128.84 1790.92 1128.84 1798.48 1125.87 1804.34 1119.93 1810.21 1113.99 1813.14 1105.67 1813.14 1094.96L1813.14 1092.76C1813.14 1082.06 1810.21 1073.73 1804.34 1067.79 1798.48 1061.85 1790.92 1058.88 1781.68 1058.88ZM2609.96 1058.44C2600.87 1058.44 2593.28 1061.38 2587.19 1067.24 2581.11 1073.11 2578.06 1081.62 2578.06 1092.76L2578.06 1094.96C2578.06 1105.96 2581.11 1114.43 2587.19 1120.37 2593.28 1126.31 2600.87 1129.28 2609.96 1129.28 2619.06 1129.28 2626.61 1126.31 2632.62 1120.37 2638.64 1114.43 2641.64 1105.96 2641.64 1094.96L2641.64 1092.76C2641.64 1081.62 2638.67 1073.11 2632.73 1067.24 2626.79 1061.38 2619.2 1058.44 2609.96 1058.44ZM1972.04 1058.44C1963.98 1058.44 1957.52 1060.57 1952.68 1064.82 1947.84 1069.08 1944.84 1074.8 1943.66 1081.98L1999.32 1081.98C1998.74 1074.8 1995.99 1069.08 1991.07 1064.82 1986.16 1060.57 1979.82 1058.44 1972.04 1058.44ZM1560.96 1058.44C1551.87 1058.44 1544.28 1061.38 1538.19 1067.24 1532.11 1073.11 1529.06 1081.62 1529.06 1092.76L1529.06 1094.96C1529.06 1105.96 1532.11 1114.43 1538.19 1120.37 1544.28 1126.31 1551.87 1129.28 1560.96 1129.28 1570.2 1129.28 1577.79 1126.31 1583.73 1120.37 1589.67 1114.43 1592.64 1105.96 1592.64 1094.96L1592.64 1092.76C1592.64 1081.62 1589.64 1073.11 1583.62 1067.24 1577.61 1061.38 1570.06 1058.44 1560.96 1058.44ZM2692.32 1039.52 2717.4 1039.52 2717.4 1102.66C2717.4 1111.46 2719.57 1117.99 2723.89 1122.24 2728.22 1126.5 2734.34 1128.62 2742.26 1128.62 2751.21 1128.62 2758.29 1125.69 2763.49 1119.82 2768.7 1113.96 2771.3 1105.52 2771.3 1094.52L2771.3 1039.52 2796.38 1039.52 2796.38 1148.2 2771.74 1148.2 2771.74 1133.02 2768 1133.02C2766.1 1136.98 2762.61 1140.8 2757.55 1144.46 2752.49 1148.13 2744.9 1149.96 2734.78 1149.96 2726.42 1149.96 2719.02 1148.09 2712.56 1144.35 2706.11 1140.61 2701.12 1135.33 2697.6 1128.51 2694.08 1121.69 2692.32 1113.74 2692.32 1104.64ZM2496.2 1039.52 2521.5 1039.52 2521.5 1148.2 2496.2 1148.2ZM1865.64 1039.52 1890.94 1039.52 1890.94 1168.88C1890.94 1176.07 1888.85 1181.75 1884.67 1185.93 1880.49 1190.11 1874.88 1192.2 1867.84 1192.2L1844.74 1192.2 1844.74 1170.42 1859.48 1170.42C1863.59 1170.42 1865.64 1168.22 1865.64 1163.82ZM2460.58 1039.08 2473.78 1039.08 2473.78 1061.52 2460.14 1061.52C2452.81 1061.52 2446.87 1063.47 2442.32 1067.35 2437.78 1071.24 2435.5 1077.22 2435.5 1085.28L2435.5 1148.2 2410.2 1148.2 2410.2 1039.52 2435.06 1039.52 2435.06 1052.06 2438.8 1052.06C2440.42 1047.52 2443.13 1044.22 2446.94 1042.16 2450.76 1040.11 2455.3 1039.08 2460.58 1039.08ZM1694.58 1039.08 1707.78 1039.08 1707.78 1061.52 1694.14 1061.52C1686.81 1061.52 1680.87 1063.47 1676.32 1067.35 1671.78 1071.24 1669.5 1077.22 1669.5 1085.28L1669.5 1148.2 1644.2 1148.2 1644.2 1039.52 1669.06 1039.52 1669.06 1052.06 1672.8 1052.06C1674.42 1047.52 1677.13 1044.22 1680.94 1042.16 1684.76 1040.11 1689.3 1039.08 1694.58 1039.08ZM2890.8 1037.54C2899.16 1037.54 2906.57 1039.45 2913.02 1043.26 2919.48 1047.08 2924.5 1052.36 2928.09 1059.1 2931.69 1065.85 2933.48 1073.84 2933.48 1083.08L2933.48 1148.2 2908.18 1148.2 2908.18 1085.06C2908.18 1076.26 2906.02 1069.7 2901.69 1065.37 2897.37 1061.05 2891.24 1058.88 2883.32 1058.88 2874.38 1058.88 2867.34 1061.85 2862.2 1067.79 2857.07 1073.73 2854.5 1082.2 2854.5 1093.2L2854.5 1148.2 2829.2 1148.2 2829.2 1039.52 2854.06 1039.52 2854.06 1054.7 2857.8 1054.7C2859.71 1050.6 2863.16 1046.71 2868.14 1043.04 2873.13 1039.38 2880.68 1037.54 2890.8 1037.54ZM3188.68 1036.44C3200.86 1036.44 3210.9 1039.16 3218.82 1044.58 3226.74 1050.01 3231.88 1057.27 3234.22 1066.36L3210.9 1073.4C3209.73 1067.24 3207.16 1062.88 3203.2 1060.31 3199.24 1057.75 3194.4 1056.46 3188.68 1056.46 3182.82 1056.46 3178.31 1057.49 3175.15 1059.54 3172 1061.6 3170.42 1064.53 3170.42 1068.34 3170.42 1072.16 3172.04 1075.02 3175.26 1076.92 3178.49 1078.83 3182.82 1080.22 3188.24 1081.1L3195.06 1082.42C3203.13 1083.89 3210.43 1085.8 3216.95 1088.14 3223.48 1090.49 3228.65 1093.86 3232.46 1098.26 3236.28 1102.66 3238.18 1108.6 3238.18 1116.08 3238.18 1127.38 3234.11 1136.07 3225.97 1142.15 3217.83 1148.24 3206.87 1151.28 3193.08 1151.28 3179 1151.28 3167.42 1148.2 3158.32 1142.04 3149.23 1135.88 3143.73 1126.86 3141.82 1114.98L3165.14 1109.04C3166.17 1114.62 3168 1119.02 3170.64 1122.24 3173.28 1125.47 3176.55 1127.74 3180.43 1129.06 3184.32 1130.38 3188.54 1131.04 3193.08 1131.04 3199.98 1131.04 3205.15 1129.8 3208.59 1127.3 3212.04 1124.81 3213.76 1121.66 3213.76 1117.84 3213.76 1113.88 3212.11 1110.95 3208.81 1109.04 3205.51 1107.14 3200.49 1105.52 3193.74 1104.2L3186.92 1103.1C3179.44 1101.64 3172.62 1099.62 3166.46 1097.05 3160.3 1094.49 3155.35 1090.97 3151.61 1086.49 3147.87 1082.02 3146 1076.34 3146 1069.44 3146 1058.88 3149.93 1050.74 3157.77 1045.02 3165.62 1039.3 3175.92 1036.44 3188.68 1036.44ZM3009.08 1036.44C3023.31 1036.44 3034.49 1040 3042.63 1047.11 3050.77 1054.23 3054.84 1064.53 3054.84 1078.02L3054.84 1120.7C3054.84 1125.1 3056.9 1127.3 3061 1127.3L3070.24 1127.3 3070.24 1148.2 3052.42 1148.2C3047.14 1148.2 3042.82 1146.88 3039.44 1144.24 3036.07 1141.6 3034.38 1138.01 3034.38 1133.46L3034.38 1133.02 3030.64 1133.02C3029.76 1135.08 3028.22 1137.57 3026.02 1140.5 3023.82 1143.44 3020.49 1145.97 3016.01 1148.09 3011.54 1150.22 3005.49 1151.28 2997.86 1151.28 2990.24 1151.28 2983.34 1149.93 2977.18 1147.21 2971.02 1144.5 2966.15 1140.58 2962.55 1135.44 2958.96 1130.31 2957.16 1124 2957.16 1116.52 2957.16 1109.19 2958.96 1103.03 2962.55 1098.04 2966.15 1093.06 2971.1 1089.28 2977.4 1086.71 2983.71 1084.15 2990.9 1082.86 2998.96 1082.86L3030.42 1082.86 3030.42 1076.26C3030.42 1070.54 3028.66 1065.89 3025.14 1062.29 3021.62 1058.7 3016.12 1056.9 3008.64 1056.9 3001.31 1056.9 2995.77 1058.63 2992.03 1062.07 2988.29 1065.52 2985.84 1069.96 2984.66 1075.38L2961.34 1067.68C2963.1 1061.96 2965.93 1056.76 2969.81 1052.06 2973.7 1047.37 2978.87 1043.59 2985.32 1040.73 2991.78 1037.87 2999.7 1036.44 3009.08 1036.44ZM2102.02 1036.44C2112.44 1036.44 2121.35 1038.28 2128.75 1041.94 2136.16 1045.61 2142.14 1050.63 2146.68 1057.01 2151.23 1063.39 2154.16 1070.54 2155.48 1078.46L2131.06 1083.52C2130.48 1078.98 2129.08 1074.83 2126.88 1071.09 2124.68 1067.35 2121.57 1064.38 2117.53 1062.18 2113.5 1059.98 2108.55 1058.88 2102.68 1058.88 2096.67 1058.88 2091.28 1060.17 2086.51 1062.73 2081.75 1065.3 2078.01 1069.15 2075.29 1074.28 2072.58 1079.42 2071.22 1085.58 2071.22 1092.76L2071.22 1094.96C2071.22 1102.15 2072.58 1108.27 2075.29 1113.33 2078.01 1118.39 2081.75 1122.24 2086.51 1124.88 2091.28 1127.52 2096.67 1128.84 2102.68 1128.84 2111.63 1128.84 2118.41 1126.53 2123.03 1121.91 2127.65 1117.29 2130.55 1111.32 2131.72 1103.98L2156.14 1109.7C2154.38 1117.33 2151.23 1124.3 2146.68 1130.6 2142.14 1136.91 2136.16 1141.93 2128.75 1145.67 2121.35 1149.41 2112.44 1151.28 2102.02 1151.28 2091.46 1151.28 2081.93 1149.08 2073.42 1144.68 2064.92 1140.28 2058.21 1133.9 2053.29 1125.54 2048.38 1117.18 2045.92 1107.14 2045.92 1095.4L2045.92 1092.32C2045.92 1080.59 2048.38 1070.54 2053.29 1062.18 2058.21 1053.82 2064.92 1047.44 2073.42 1043.04 2081.93 1038.64 2091.46 1036.44 2102.02 1036.44ZM1972.26 1036.44C1982.82 1036.44 1992.06 1038.75 1999.98 1043.37 2007.9 1047.99 2014.06 1054.48 2018.46 1062.84 2022.86 1071.2 2025.06 1080.96 2025.06 1092.1L2025.06 1101.12 1943.44 1101.12C1943.74 1109.63 1946.74 1116.45 1952.46 1121.58 1958.18 1126.72 1965.22 1129.28 1973.58 1129.28 1981.8 1129.28 1987.88 1127.49 1991.84 1123.89 1995.8 1120.3 1998.81 1116.23 2000.86 1111.68L2021.76 1122.46C2019.71 1126.42 2016.74 1130.64 2012.85 1135.11 2008.97 1139.59 2003.8 1143.4 1997.34 1146.55 1990.89 1149.71 1982.75 1151.28 1972.92 1151.28 1962.07 1151.28 1952.5 1148.97 1944.21 1144.35 1935.93 1139.73 1929.47 1133.21 1924.85 1124.77 1920.23 1116.34 1917.92 1106.48 1917.92 1095.18L1917.92 1092.54C1917.92 1081.1 1920.2 1071.2 1924.74 1062.84 1929.29 1054.48 1935.67 1047.99 1943.88 1043.37 1952.1 1038.75 1961.56 1036.44 1972.26 1036.44ZM1781.68 1036.44C1792.54 1036.44 1802.22 1038.64 1810.72 1043.04 1819.23 1047.44 1825.94 1053.82 1830.85 1062.18 1835.77 1070.54 1838.22 1080.52 1838.22 1092.1L1838.22 1095.62C1838.22 1107.21 1835.77 1117.15 1830.85 1125.43 1825.94 1133.72 1819.23 1140.1 1810.72 1144.57 1802.22 1149.05 1792.54 1151.28 1781.68 1151.28 1770.83 1151.28 1761.11 1149.05 1752.53 1144.57 1743.95 1140.1 1737.21 1133.72 1732.29 1125.43 1727.38 1117.15 1724.92 1107.21 1724.92 1095.62L1724.92 1092.1C1724.92 1080.52 1727.38 1070.54 1732.29 1062.18 1737.21 1053.82 1743.95 1047.44 1752.53 1043.04 1761.11 1038.64 1770.83 1036.44 1781.68 1036.44ZM1568.44 1036.44C1577.24 1036.44 1585.42 1038.61 1592.97 1042.93 1600.53 1047.26 1606.58 1053.6 1611.12 1061.96 1615.67 1070.32 1617.94 1080.37 1617.94 1092.1L1617.94 1095.62C1617.94 1107.36 1615.67 1117.4 1611.12 1125.76 1606.58 1134.12 1600.56 1140.47 1593.08 1144.79 1585.6 1149.12 1577.39 1151.28 1568.44 1151.28 1561.55 1151.28 1555.79 1150.48 1551.17 1148.86 1546.55 1147.25 1542.81 1145.12 1539.95 1142.48 1537.09 1139.84 1534.86 1137.2 1533.24 1134.56L1529.5 1134.56 1529.5 1192.2 1504.2 1192.2 1504.2 1039.52 1529.06 1039.52 1529.06 1053.82 1532.8 1053.82C1535.3 1049.28 1539.29 1045.24 1544.79 1041.72 1550.29 1038.2 1558.18 1036.44 1568.44 1036.44ZM2198.46 1004.54 2223.76 1004.54 2223.76 1039.52 2255 1039.52 2255 1060.42 2223.76 1060.42 2223.76 1120.7C2223.76 1125.1 2225.82 1127.3 2229.92 1127.3L2251.7 1127.3 2251.7 1148.2 2221.56 1148.2C2214.52 1148.2 2208.91 1146.11 2204.73 1141.93 2200.55 1137.75 2198.46 1132.07 2198.46 1124.88L2198.46 1060.42 2170.08 1060.42 2170.08 1039.52 2198.46 1039.52ZM3091.2 994.204 3116.5 994.204 3116.5 1148.2 3091.2 1148.2ZM2553.2 994.204 2578.5 994.204 2578.5 1053.16 2582.24 1053.16C2583.86 1050.23 2586.09 1047.52 2588.95 1045.02 2591.81 1042.53 2595.55 1040.48 2600.17 1038.86 2604.79 1037.25 2610.55 1036.44 2617.44 1036.44 2626.39 1036.44 2634.6 1038.61 2642.08 1042.93 2649.56 1047.26 2655.58 1053.6 2660.12 1061.96 2664.67 1070.32 2666.94 1080.37 2666.94 1092.1L2666.94 1095.62C2666.94 1107.36 2664.67 1117.4 2660.12 1125.76 2655.58 1134.12 2649.53 1140.47 2641.97 1144.79 2634.42 1149.12 2626.24 1151.28 2617.44 1151.28 2607.18 1151.28 2599.29 1149.49 2593.79 1145.89 2588.29 1142.3 2584.3 1138.3 2581.8 1133.9L2578.06 1133.9 2578.06 1148.2 2553.2 1148.2ZM2269.64 994.204 2388 994.204 2388 1018.18 2342.02 1018.18 2342.02 1148.2 2315.62 1148.2 2315.62 1018.18 2269.64 1018.18ZM2508.74 992.664C2513.58 992.664 2517.58 994.167 2520.73 997.174 2523.89 1000.18 2525.46 1004.18 2525.46 1009.16 2525.46 1014.15 2523.89 1018.15 2520.73 1021.15 2517.58 1024.16 2513.58 1025.66 2508.74 1025.66 2504.2 1025.66 2500.27 1024.16 2496.97 1021.15 2493.67 1018.15 2492.02 1014.15 2492.02 1009.16 2492.02 1004.18 2493.67 1000.18 2496.97 997.174 2500.27 994.167 2504.2 992.664 2508.74 992.664ZM1878.18 992.664C1883.02 992.664 1887.02 994.167 1890.17 997.174 1893.33 1000.18 1894.9 1004.18 1894.9 1009.16 1894.9 1014.15 1893.33 1018.15 1890.17 1021.15 1887.02 1024.16 1883.02 1025.66 1878.18 1025.66 1873.64 1025.66 1869.71 1024.16 1866.41 1021.15 1863.11 1018.15 1861.46 1014.15 1861.46 1009.16 1861.46 1004.18 1863.11 1000.18 1866.41 997.174 1869.71 994.167 1873.64 992.664 1878.18 992.664Z" fill="url(#fill1)" fill-rule="evenodd"/><text fill="#000000" fill-opacity="0" font-family="Arial,Arial_MSFontService,sans-serif" font-size="199.54" x="1504.2" y="1167.26">projectTribunals</text><g><g><g><path d="M1362.89 1072.57 1316.5 1054.12C1312.21 1052.37 1309.41 1048.19 1309.42 1043.56L1309.42 1026.74C1329.53 1011.65 1341.97 988.468 1343.43 963.373 1343.94 962.313 1344.78 960.716 1345.85 958.689 1353.03 945.065 1360.68 929.687 1360.67 919.622 1360.6 882.722 1338.78 850.083 1302.3 832.317 1297.82 830.173 1292.54 830.618 1288.49 833.479L1287.52 834.156 1284.68 830.271C1281.92 826.423 1277.77 823.802 1273.11 822.968 1267.08 821.918 1260.96 821.385 1254.83 821.375 1214.37 821.375 1180.28 842.915 1165.86 877.586 1156.61 902.856 1156.29 930.527 1164.94 956.006L1174.14 975.471C1178.37 995.938 1189.92 1014.16 1206.64 1026.7L1206.64 1043.56C1206.65 1048.18 1203.87 1052.34 1199.6 1054.1L1152.22 1072.97C1139.3 1078.1 1126.87 1084.39 1115.08 1091.77L1123.34 1100.03C1133.92 1093.64 1145.01 1088.13 1156.5 1083.55L1162.78 1081.05 1253.23 1224.01C1254.91 1226.67 1258.44 1227.47 1261.1 1225.78 1261.82 1225.33 1262.42 1224.72 1262.88 1224.01L1353.27 1081.03 1358.66 1083.18C1376.64 1089.96 1393.49 1099.45 1408.62 1111.3 1417.82 1118.47 1423.31 1129.4 1423.56 1141.06L1423.56 1232.25C1374.67 1263.36 1146.66 1263.24 1092.53 1232.07L1092.52 1190.29 1082.3 1180.08 1081.11 1181.27 1081.11 1238.3 1083.65 1239.99C1110.35 1257.79 1185.42 1266.67 1259.88 1266.67 1334.67 1266.67 1408.84 1257.71 1432.69 1239.81L1434.98 1238.09 1434.97 1140.93C1434.69 1125.85 1427.63 1111.69 1415.75 1102.39 1399.74 1089.82 1381.92 1079.77 1362.89 1072.57ZM1176.39 881.971C1189.01 851.637 1219.07 832.792 1254.83 832.792 1260.31 832.801 1265.78 833.278 1271.17 834.216 1272.91 834.563 1274.44 835.561 1275.46 837.006L1284.89 849.892 1295.02 842.845C1295.68 842.358 1296.54 842.256 1297.3 842.578 1329.77 858.393 1349.19 887.199 1349.25 919.641 1349.26 926.928 1341.85 941.696 1337.18 950.637 1331.72 944.044 1324.71 926.229 1320.65 915.892 1313.12 896.693 1309.53 888.13 1303.6 886.336 1301.43 885.678 1299.07 886.055 1297.21 887.359 1279.28 899.757 1258.82 908.016 1237.3 911.54 1214.35 916.442 1194.42 920.779 1175.51 951.682L1175.44 951.53C1168 928.885 1168.34 904.405 1176.39 881.973ZM1183.86 959.887C1200.67 931.038 1217.09 927.529 1239.69 922.705 1261.51 919.081 1282.33 910.912 1300.79 898.73 1304.29 905.653 1307.37 912.776 1310.03 920.061 1318.18 940.82 1324.43 955.598 1332.2 961.577 1330.43 1002.52 1295.81 1034.29 1254.86 1032.53 1215.73 1030.84 1184.65 999.041 1183.86 959.885ZM1258.06 1044.01C1271.99 1044.02 1285.7 1040.6 1298 1034.07L1298 1043.56C1298 1050.66 1301.32 1057.36 1306.98 1061.66L1258.02 1081.23 1209.08 1061.66C1214.74 1057.36 1218.06 1050.66 1218.05 1043.56L1218.05 1034.04C1230.37 1040.59 1244.11 1044.02 1258.06 1044.01ZM1194.87 1068.27 1229.48 1082.12 1229.48 1165.12 1173.57 1076.75ZM1258.05 1210.28 1240.9 1183.17 1240.9 1086.68 1258.02 1093.53 1275.15 1086.68 1275.15 1183.23ZM1286.56 1165.17 1286.56 1082.12 1321.18 1068.27 1342.47 1076.74Z" fill="#FF9F8A"/><path d="M1082.3 1163.93 1150.92 1232.55C1153.17 1234.75 1156.79 1234.71 1158.99 1232.45 1161.15 1230.23 1161.15 1226.7 1158.99 1224.48L1090.37 1155.86 1107.64 1138.59C1111.56 1139.71 1115.78 1138.59 1118.63 1135.68L1130.74 1123.57 1082.3 1075.13 1070.2 1087.24C1067.33 1090.12 1066.22 1094.31 1067.28 1098.23L1024.67 1140.84C1020.75 1139.78 1016.56 1140.89 1013.68 1143.75L1001.58 1155.86 1050.01 1204.3 1062.12 1192.19 1062.13 1192.19C1064.98 1189.3 1066.09 1185.12 1065.03 1181.21ZM1058.09 1172.01 1045.97 1159.9 1033.86 1147.79 1074.23 1107.42 1086.34 1119.53 1098.45 1131.64ZM1082.3 1091.28 1114.59 1123.57 1110.56 1127.61 1078.27 1095.31ZM1050.01 1188.15 1017.72 1155.86 1021.76 1151.82 1054.04 1184.12Z" fill="#FF9F8A"/></g></g></g><path d="M3.78509-3.50143 184.827 192.207 177.257 199.21-3.78509 3.50143ZM-11.3553 10.5043C-17.1566 4.23293-16.7756-5.55393-10.5043-11.3553-4.23293-17.1566 5.55393-16.7756 11.3553-10.5043 17.1566-4.23293 16.7756 5.55393 10.5043 11.3553 4.23293 17.1566-5.55393 16.7756-11.3553 10.5043ZM192.397 185.204C198.198 191.476 197.817 201.263 191.546 207.064 185.275 212.865 175.488 212.484 169.686 206.213 163.885 199.942 164.266 190.155 170.537 184.353 176.809 178.552 186.596 178.933 192.397 185.204Z" fill="url(#fill2)" transform="matrix(1 0 0 -1 984 1025.71)"/><path d="M1170.54 826.252 1274.15 924.106 1267.07 931.603 1163.46 833.749ZM1156.38 841.246C1150.17 835.38 1149.89 825.59 1155.75 819.379 1161.62 813.168 1171.41 812.888 1177.62 818.754 1183.83 824.62 1184.11 834.411 1178.25 840.622 1172.38 846.832 1162.59 847.112 1156.38 841.246ZM1281.23 916.608C1287.44 922.474 1287.72 932.265 1281.85 938.476 1275.99 944.687 1266.2 944.966 1259.99 939.1 1253.78 933.234 1253.5 923.444 1259.36 917.233 1265.23 911.022 1275.02 910.742 1281.23 916.608Z" fill="url(#fill3)"/><path d="M3.57266-3.71793 187.7 173.215 180.555 180.651-3.57266 3.71793ZM-10.718 11.1538C-16.8781 5.2344-17.0732-4.55793-11.1538-10.718-5.2344-16.8781 4.55793-17.0732 10.718-11.1538 16.8781-5.2344 17.0732 4.55793 11.1538 10.718 5.2344 16.8781-4.55793 17.0732-10.718 11.1538ZM194.845 165.779C201.005 171.699 201.2 181.491 195.281 187.651 189.362 193.811 179.569 194.006 173.409 188.087 167.249 182.168 167.054 172.375 172.974 166.215 178.893 160.055 188.685 159.86 194.845 165.779Z" fill="url(#fill4)" transform="matrix(1 0 0 -1 1271 927.933)"/></g></svg>